<svg width="227" height="252" viewBox="0 0 227 252" fill="none" xmlns="http://www.w3.org/2000/svg">
<rect width="212" height="211" fill="#FCFCFC"/>
<circle opacity="0.1" cx="110.026" cy="115.026" r="46.0259" stroke="#2E2E30" stroke-width="6"/>
<g filter="url(#filter0_d_2245_13)">
<path d="M75.0195 149.146C80.9331 155.087 88.2711 159.412 96.3324 161.708C104.394 164.005 112.909 164.196 121.066 162.264C129.222 160.332 136.747 156.341 142.921 150.672C149.096 145.003 153.713 137.846 156.334 129.883C158.954 121.921 159.489 113.421 157.888 105.193C156.286 96.965 152.602 89.2852 147.187 82.887" stroke="url(#paint0_linear_2245_13)" stroke-width="24"/>
</g>
<g filter="url(#filter1_d_2245_13)">
<path d="M158.791 114.558C158.791 108.12 157.523 101.745 155.059 95.7969C152.595 89.8488 148.984 84.4442 144.431 79.8917C139.879 75.3392 134.474 71.728 128.526 69.2642C122.578 66.8004 116.203 65.5323 109.765 65.5323" stroke="#FF5A3C" stroke-width="14"/>
</g>
<rect x="35" y="42" width="42.6525" height="20.1006" fill="#FF5A3C"/>
<rect x="68.644" y="58.3625" width="4.76664" height="4.76664" transform="rotate(45 68.644 58.3625)" fill="#FF5A3C"/>
<path d="M51.5159 48.8613C51.3938 48.8613 51.3108 48.9248 51.262 49.0566L49.3577 54.042L48.386 51.7178L49.4309 49.1055C49.4895 48.9639 49.4309 48.8613 49.2698 48.8613H48.2053C48.0784 48.8613 47.9954 48.9248 47.9514 49.0566L46.0764 53.9883L44.2258 49.0615C44.1819 48.9297 44.094 48.8662 43.9622 48.8662H42.8977C42.7415 48.8662 42.678 48.959 42.7415 49.1104L45.4124 55.8096C45.4661 55.9414 45.5588 56.0098 45.6858 56.0098H46.4817C46.5989 56.0098 46.7063 55.9268 46.7502 55.8047L47.7366 53.3389L48.7278 55.8096C48.7717 55.9316 48.8889 56.0098 49.0012 56.0098H49.7922C49.9094 56.0098 50.0168 55.9268 50.0608 55.8047L52.7463 49.1055C52.8049 48.9541 52.7415 48.8613 52.5852 48.8613H51.5159ZM52.7512 52.4502C52.7512 53.1289 52.9124 53.749 53.2395 54.3154C53.5666 54.877 54.0159 55.3213 54.5823 55.6484C55.1487 55.9756 55.7737 56.1367 56.4524 56.1367C57.1311 56.1367 57.7561 55.9756 58.3225 55.6484C58.8889 55.3213 59.3333 54.877 59.6604 54.3154C59.9875 53.749 60.1536 53.1289 60.1536 52.4502C60.1536 51.7715 59.9875 51.1465 59.6604 50.5801C59.3333 50.0088 58.8889 49.5645 58.3225 49.2373C57.7561 48.9102 57.1311 48.7441 56.4524 48.7441C55.7737 48.7441 55.1487 48.9102 54.5823 49.2373C54.0159 49.5645 53.5666 50.0088 53.2395 50.5801C52.9124 51.1465 52.7512 51.7715 52.7512 52.4502ZM54.1477 52.4502C54.1233 51.1807 55.1877 50.1162 56.4524 50.1406C57.717 50.1162 58.7815 51.1807 58.7571 52.4502C58.7571 53.0898 58.5325 53.6367 58.0881 54.0811C57.6438 54.5254 57.1018 54.7451 56.4524 54.7451C55.803 54.7451 55.2561 54.5254 54.8118 54.0811C54.3674 53.6367 54.1477 53.0898 54.1477 52.4502ZM68.9377 48.8613C68.8157 48.8613 68.7327 48.9248 68.6838 49.0566L66.7795 54.042L65.8079 51.7178L66.8528 49.1055C66.9114 48.9639 66.8528 48.8613 66.6916 48.8613H65.6272C65.5002 48.8613 65.4172 48.9248 65.3733 49.0566L63.4983 53.9883L61.6477 49.0615C61.6038 48.9297 61.5159 48.8662 61.384 48.8662H60.3196C60.1633 48.8662 60.0999 48.959 60.1633 49.1104L62.8342 55.8096C62.8879 55.9414 62.9807 56.0098 63.1077 56.0098H63.9036C64.0208 56.0098 64.1282 55.9268 64.1721 55.8047L65.1584 53.3389L66.1497 55.8096C66.1936 55.9316 66.3108 56.0098 66.4231 56.0098H67.2141C67.3313 56.0098 67.4387 55.9268 67.4827 55.8047L70.1682 49.1055C70.2268 48.9541 70.1633 48.8613 70.0071 48.8613H68.9377Z" fill="white"/>
<path d="M95.7445 98.4883C94.2699 98.4883 93.0297 98.9863 92.014 99.9922C90.9984 100.998 90.4906 102.219 90.4906 103.664C90.4906 105.041 90.9203 106.203 91.7699 107.15C92.6195 108.098 93.6644 108.576 94.8949 108.576C95.5101 108.576 96.0765 108.439 96.6136 108.166C96.1937 108.859 95.6468 109.592 94.9633 110.344C94.2797 111.096 93.5863 111.73 92.8929 112.258C92.3558 112.678 92.5316 113.01 93.2836 113.01H96.0277C96.2914 113.01 96.7211 112.834 96.9652 112.609C98.1859 111.584 99.1625 110.324 99.9047 108.83C100.647 107.336 101.018 105.695 101.018 103.918C101.018 102.355 100.432 100.939 99.4945 100.002C98.557 99.0645 97.1996 98.4883 95.7445 98.4883ZM95.7738 105.686C95.2074 105.686 94.7289 105.5 94.3383 105.119C93.9574 104.738 93.7621 104.27 93.7621 103.713C93.7621 103.166 93.9574 102.707 94.3383 102.326C94.7289 101.945 95.2074 101.75 95.764 101.75C96.3207 101.75 96.7894 101.945 97.1703 102.326C97.5609 102.707 97.7562 103.166 97.7562 103.713C97.7562 104.27 97.5609 104.738 97.18 105.119C96.7992 105.5 96.3304 105.686 95.7738 105.686ZM107.209 98.4883C105.735 98.4883 104.495 98.9863 103.479 99.9922C102.463 100.998 101.955 102.219 101.955 103.664C101.955 105.041 102.385 106.203 103.235 107.15C104.084 108.098 105.129 108.576 106.36 108.576C106.975 108.576 107.541 108.439 108.078 108.166C107.659 108.859 107.112 109.592 106.428 110.344C105.745 111.096 105.051 111.73 104.358 112.258C103.821 112.678 103.996 113.01 104.748 113.01H107.493C107.756 113.01 108.186 112.834 108.43 112.609C109.651 111.584 110.627 110.324 111.37 108.83C112.112 107.336 112.483 105.695 112.483 103.918C112.483 102.355 111.897 100.939 110.959 100.002C110.022 99.0645 108.664 98.4883 107.209 98.4883ZM107.239 105.686C106.672 105.686 106.194 105.5 105.803 105.119C105.422 104.738 105.227 104.27 105.227 103.713C105.227 103.166 105.422 102.707 105.803 102.326C106.194 101.945 106.672 101.75 107.229 101.75C107.786 101.75 108.254 101.945 108.635 102.326C109.026 102.707 109.221 103.166 109.221 103.713C109.221 104.27 109.026 104.738 108.645 105.119C108.264 105.5 107.795 105.686 107.239 105.686ZM116.399 112.531C116.252 112.727 116.262 112.941 116.409 113.059L116.848 113.391C117.073 113.557 117.278 113.527 117.453 113.283L127.815 99.25C127.971 99.0156 127.961 98.8398 127.795 98.7129L127.356 98.3906C127.151 98.2441 126.907 98.2832 126.75 98.4883L116.399 112.531ZM113.635 102.502C113.635 103.645 114.026 104.602 114.807 105.393C115.588 106.184 116.545 106.574 117.688 106.574C118.83 106.574 119.797 106.184 120.588 105.393C121.379 104.602 121.77 103.645 121.77 102.502C121.77 101.359 121.379 100.393 120.588 99.6016C119.797 98.8105 118.83 98.4199 117.688 98.4199C116.545 98.4199 115.588 98.8105 114.807 99.6016C114.026 100.393 113.635 101.359 113.635 102.502ZM116.487 101.291C116.819 100.969 117.219 100.803 117.698 100.803C118.176 100.803 118.577 100.969 118.909 101.301C119.241 101.623 119.407 102.023 119.407 102.502C119.407 102.98 119.241 103.381 118.909 103.713C118.577 104.035 118.176 104.201 117.698 104.201C117.219 104.201 116.819 104.035 116.487 103.703C116.164 103.371 115.998 102.971 115.998 102.492C115.998 102.014 116.164 101.613 116.487 101.291ZM122.844 109.26C122.844 110.393 123.235 111.359 124.016 112.15C124.807 112.941 125.764 113.332 126.897 113.332C128.039 113.332 129.006 112.941 129.797 112.15C130.588 111.359 130.989 110.393 130.989 109.26C130.989 108.117 130.588 107.15 129.797 106.359C129.006 105.568 128.039 105.178 126.897 105.178C125.764 105.178 124.807 105.568 124.016 106.359C123.235 107.15 122.844 108.117 122.844 109.26ZM125.696 108.049C126.028 107.717 126.428 107.551 126.907 107.551C127.385 107.551 127.786 107.717 128.118 108.049C128.45 108.381 128.616 108.781 128.616 109.26C128.616 109.738 128.45 110.139 128.118 110.461C127.786 110.783 127.385 110.949 126.907 110.949C126.428 110.949 126.028 110.783 125.696 110.461C125.373 110.129 125.207 109.729 125.207 109.25C125.207 108.771 125.373 108.371 125.696 108.049ZM93.2445 125.999C93.2445 126.053 93.2738 126.102 93.3373 126.146C93.7035 126.458 94.0892 126.688 94.4896 126.839C94.89 126.985 95.349 127.059 95.8715 127.059C97.4242 127.073 98.5912 126.258 98.5717 124.964C98.5717 124.554 98.4593 124.222 98.2299 123.963C98.0052 123.704 97.7172 123.499 97.3705 123.357C97.0238 123.216 96.5795 123.074 96.0375 122.933C95.3588 122.776 94.89 122.63 94.5629 122.322C94.4017 122.171 94.3236 121.98 94.3236 121.751C94.3236 121.062 95.0365 120.638 96.0033 120.638C96.809 120.652 97.1215 120.789 97.7025 121.18C97.7562 121.214 97.805 121.233 97.8441 121.233C97.8881 121.233 97.9271 121.214 97.9613 121.17L98.2494 120.755C98.2738 120.721 98.2884 120.687 98.2884 120.652C98.2884 120.604 98.264 120.56 98.2201 120.525C97.6488 120.052 96.8822 119.808 96.0033 119.808C94.514 119.798 93.4838 120.54 93.4984 121.751C93.5179 122.845 94.2748 123.304 95.7982 123.665C96.1937 123.758 96.5209 123.851 96.7797 123.938C97.0384 124.026 97.2631 124.153 97.4535 124.324C97.6439 124.49 97.7416 124.705 97.7416 124.964C97.7416 125.779 96.9652 126.233 95.8715 126.233C95.0121 126.233 94.2845 125.936 93.8109 125.481C93.7621 125.442 93.7181 125.423 93.6791 125.423C93.6449 125.423 93.6058 125.442 93.5668 125.481L93.2836 125.896C93.2592 125.931 93.2445 125.965 93.2445 125.999ZM103.157 124.295C103.157 123.299 102.405 122.669 101.311 122.669C101.047 122.669 100.774 122.703 100.495 122.771C100.217 122.84 99.9877 122.933 99.7972 123.05C99.7142 123.094 99.6752 123.147 99.6752 123.211C99.6752 123.235 99.68 123.255 99.6947 123.279L99.8607 123.606C99.8802 123.65 99.9193 123.675 99.973 123.675C100.007 123.675 100.041 123.665 100.076 123.646C100.237 123.553 100.432 123.475 100.657 123.421C100.881 123.367 101.096 123.338 101.306 123.338C101.907 123.338 102.356 123.729 102.356 124.354V124.637H100.71C99.8363 124.642 99.3383 125.037 99.3383 125.784C99.3383 126.575 99.9974 127.122 100.881 127.122C101.589 127.122 102.156 126.824 102.453 126.37L102.512 126.927C102.527 126.971 102.566 127.005 102.61 127.005H103.039C103.113 127.005 103.157 126.956 103.157 126.883V124.295ZM102.356 125.369C102.356 125.989 101.77 126.478 101.091 126.478C100.569 126.478 100.134 126.165 100.134 125.745C100.134 125.394 100.383 125.188 100.808 125.188H102.356V125.369ZM103.84 123.436C103.84 123.514 103.879 123.553 103.957 123.553H104.47V126.897C104.47 126.971 104.509 127.01 104.587 127.01H105.159C105.232 127.01 105.266 126.971 105.266 126.897V123.553H106.374C106.453 123.553 106.492 123.514 106.492 123.436V122.898C106.492 122.835 106.448 122.791 106.374 122.791H105.266V121.189C105.266 121.106 105.207 121.058 105.134 121.082L104.563 121.312C104.499 121.336 104.47 121.38 104.47 121.448V122.791H103.957C103.884 122.791 103.84 122.83 103.84 122.903V123.436ZM107.107 120.823C107.107 120.965 107.156 121.082 107.258 121.185C107.361 121.287 107.483 121.336 107.624 121.336C107.766 121.336 107.888 121.287 107.991 121.185C108.093 121.082 108.142 120.965 108.142 120.823C108.142 120.535 107.912 120.306 107.624 120.306C107.336 120.306 107.107 120.535 107.107 120.823ZM108.02 122.894C108.02 122.82 107.981 122.781 107.903 122.781H107.341C107.263 122.781 107.224 122.82 107.224 122.894V126.893C107.224 126.966 107.263 127.005 107.341 127.005H107.903C107.981 127.005 108.02 126.966 108.02 126.893V122.894ZM110.071 123.899C110.071 123.587 110.339 123.401 110.769 123.401C111.145 123.401 111.575 123.543 111.887 123.719C111.907 123.729 111.926 123.733 111.941 123.733C111.99 123.733 112.029 123.709 112.058 123.655L112.287 123.274C112.302 123.25 112.312 123.221 112.312 123.191C112.312 123.138 112.283 123.099 112.224 123.064C112.038 122.952 111.814 122.859 111.55 122.781C111.291 122.698 111.028 122.659 110.769 122.659C109.87 122.659 109.319 123.201 109.319 123.851C109.319 124.617 109.787 124.949 110.793 125.188C111.438 125.35 111.721 125.535 111.721 125.862C111.721 126.209 111.418 126.38 110.818 126.38C110.329 126.38 109.851 126.189 109.514 125.979C109.475 125.965 109.446 125.955 109.421 125.955C109.372 125.955 109.333 125.979 109.309 126.023L109.089 126.414C109.07 126.443 109.06 126.473 109.06 126.502C109.06 126.546 109.084 126.585 109.138 126.614C109.328 126.736 109.578 126.854 109.875 126.961C110.173 127.068 110.491 127.122 110.818 127.122C111.858 127.122 112.488 126.697 112.488 125.896C112.488 125.13 112.009 124.744 110.989 124.505C110.266 124.329 110.071 124.188 110.071 123.899ZM117.546 122.903C117.546 122.83 117.502 122.791 117.429 122.791H114.499V122.044C114.499 121.15 115.032 120.604 115.891 120.604C116.184 120.604 116.472 120.716 116.711 120.916C116.741 120.95 116.77 120.97 116.804 120.97C116.838 120.97 116.863 120.955 116.887 120.926L117.283 120.545C117.302 120.521 117.312 120.491 117.312 120.462C117.312 120.428 117.297 120.398 117.268 120.364C116.892 120.013 116.394 119.808 115.891 119.808C114.534 119.808 113.703 120.652 113.703 122.039V122.791H113.284C113.21 122.791 113.166 122.83 113.166 122.903V123.47C113.166 123.543 113.21 123.592 113.284 123.592H113.703V126.893C113.703 126.966 113.747 127.01 113.811 127.01H114.382C114.455 127.01 114.499 126.966 114.499 126.893V123.592H116.75V126.893C116.75 126.971 116.789 127.01 116.868 127.01H117.429C117.507 127.01 117.546 126.971 117.546 126.893V122.903ZM122.79 124.871C122.81 123.68 121.887 122.645 120.691 122.669C119.48 122.649 118.489 123.68 118.508 124.891C118.484 126.092 119.538 127.146 120.749 127.122C121.282 127.122 121.77 126.932 122.214 126.546C122.244 126.521 122.258 126.492 122.258 126.458C122.258 126.434 122.248 126.404 122.229 126.375C122.185 126.302 122.126 126.229 122.063 126.146L121.97 126.014C121.946 125.984 121.921 125.97 121.892 125.97C121.868 125.97 121.838 125.979 121.809 125.999C121.467 126.263 121.116 126.395 120.759 126.395C120.066 126.395 119.504 125.887 119.348 125.232H122.449C122.644 125.232 122.79 125.101 122.79 124.871ZM119.324 124.617C119.421 123.943 119.983 123.445 120.686 123.445C121.384 123.445 121.872 123.943 121.97 124.617H119.324ZM127.898 119.983C127.898 119.905 127.849 119.861 127.776 119.861H127.219C127.146 119.861 127.097 119.905 127.097 119.983L127.107 123.523C126.75 122.981 126.164 122.669 125.486 122.669C124.328 122.649 123.396 123.66 123.42 124.891C123.401 126.131 124.333 127.142 125.491 127.122C126.194 127.122 126.789 126.785 127.146 126.204L127.219 126.932C127.229 126.98 127.263 127.005 127.322 127.005H127.776C127.849 127.005 127.898 126.961 127.898 126.883V119.983ZM127.097 124.891C127.112 125.687 126.433 126.365 125.632 126.351C124.846 126.365 124.177 125.687 124.192 124.891C124.177 124.104 124.841 123.431 125.627 123.445C126.433 123.431 127.112 124.104 127.097 124.891Z" fill="#2E2E30"/>
<defs>
<filter id="filter0_d_2245_13" x="10.7951" y="39.4148" width="215.715" height="211.89" filterUnits="userSpaceOnUse" color-interpolation-filters="sRGB">
<feFlood flood-opacity="0" result="BackgroundImageFix"/>
<feColorMatrix in="SourceAlpha" type="matrix" values="0 0 0 0 0 0 0 0 0 0 0 0 0 0 0 0 0 0 127 0" result="hardAlpha"/>
<feOffset dy="20"/>
<feGaussianBlur stdDeviation="27.86"/>
<feColorMatrix type="matrix" values="0 0 0 0 0.109804 0 0 0 0 0.156863 0 0 0 0 0.431373 0 0 0 0.3 0"/>
<feBlend mode="normal" in2="BackgroundImageFix" result="effect1_dropShadow_2245_13"/>
<feBlend mode="normal" in="SourceGraphic" in2="effect1_dropShadow_2245_13" result="shape"/>
</filter>
<filter id="filter1_d_2245_13" x="54.0447" y="50.5724" width="167.466" height="167.466" filterUnits="userSpaceOnUse" color-interpolation-filters="sRGB">
<feFlood flood-opacity="0" result="BackgroundImageFix"/>
<feColorMatrix in="SourceAlpha" type="matrix" values="0 0 0 0 0 0 0 0 0 0 0 0 0 0 0 0 0 0 127 0" result="hardAlpha"/>
<feOffset dy="47.76"/>
<feGaussianBlur stdDeviation="27.86"/>
<feColorMatrix type="matrix" values="0 0 0 0 0.203125 0 0 0 0 0.585 0 0 0 0 0.9375 0 0 0 0.25 0"/>
<feBlend mode="normal" in2="BackgroundImageFix" result="effect1_dropShadow_2245_13"/>
<feBlend mode="normal" in="SourceGraphic" in2="effect1_dropShadow_2245_13" result="shape"/>
</filter>
<linearGradient id="paint0_linear_2245_13" x1="194.825" y1="74.8474" x2="58.0797" y2="39.5769" gradientUnits="userSpaceOnUse">
<stop stop-color="#1A3B4C"/>
<stop offset="1" stop-color="#122E3C"/>
</linearGradient>
</defs>
</svg>
