<svg width="76" height="178" viewBox="0 0 76 178" fill="none" xmlns="http://www.w3.org/2000/svg">
<path d="M61.6034 42.3337C61.718 42.4034 61.8326 42.4676 61.9472 42.5426C78.4061 52.9587 78.1933 69.5976 72.4888 83.0984C68.7566 91.9347 62.0045 100.787 51.7903 107.229C59.5655 118.026 59.8601 131.912 55.4569 142.591C50.6363 154.281 39.7755 164.333 25.2235 171.456C26.0502 172.034 26.9014 172.607 27.7935 173.159C28.3582 173.507 28.5955 173.914 28.6201 174.315C29.1439 174.573 29.6677 174.83 30.2161 175.076C31.902 175.826 30.9281 177.861 28.8984 177.866C20.7548 177.887 12.6113 177.946 4.47595 178C2.80632 178.011 1.2922 176.945 2.15157 175.836C2.83087 174.963 3.51018 174.091 4.19768 173.218C4.2386 172.768 4.50869 172.318 5.05705 171.981C5.13071 171.932 5.21255 171.89 5.28621 171.847C7.68426 168.832 10.1314 165.833 12.7095 162.877C13.7326 161.704 16.3189 162.293 16.1797 163.444C16.4007 163.551 16.5971 163.691 16.7526 163.873C18.2176 165.565 19.83 167.166 21.6142 168.682C45.2918 157.205 57.6176 137.46 51.291 118.015C50.448 115.423 49.1221 112.563 47.3052 109.779C44.768 111.075 42.0671 112.242 39.1535 113.222C26.0829 117.64 -1.05674 118.588 0.0317918 104.579C1.10396 90.7726 26.9586 89.5087 40.0947 96.9097C43.8104 99.0037 46.8796 101.499 49.3922 104.268C66.2849 93.327 73.8146 74.6531 70.3608 60.3972C69.1331 55.3418 65.6466 50.0936 60.3594 46.1039C56.5536 56.2843 48.7866 66.6576 31.5665 66.1702C15.2385 65.7043 7.6597 51.9947 16.2943 43.7636C25.8374 34.6756 44.8008 34.5525 57.6422 40.2719C57.8386 39.5115 58.0268 38.7617 58.2151 38.0173C61.5298 24.929 60.0484 8.0383 38.3105 2.16353C36.2153 1.59586 37.6966 -0.439163 39.7919 0.0856628C61.2024 5.43562 65.7857 21.523 63.3385 34.8149C62.9375 37.0534 62.3891 39.6347 61.6034 42.3337ZM17.8575 95.7262C10.0905 96.6206 3.95214 101.44 5.39261 106.71C7.31595 113.774 21.2623 113.747 29.3485 112.194C35.1758 111.075 40.4303 109.195 45.1036 106.758C39.489 99.8712 30.5352 94.2696 17.8575 95.7262ZM37.4266 39.4365C21.6224 40.2559 9.65671 52.1607 22.7191 60.5204C31.1 65.8811 43.3275 62.1805 49.1712 56.7342C53.2307 52.948 55.2687 48.3263 56.6846 43.7101C51.4465 40.7861 44.9317 39.0456 37.4266 39.4365Z" fill="white"/>
</svg>
