<svg width="372" height="166" viewBox="0 0 372 166" fill="none" xmlns="http://www.w3.org/2000/svg">
<rect width="372" height="166" rx="18" fill="#F6FAFD"/>
<path d="M42.48 43.324C42.48 44.596 42.268 45.776 41.844 46.864C41.428 47.944 40.836 48.88 40.068 49.672C39.3 50.464 38.376 51.084 37.296 51.532C36.216 51.972 35.016 52.192 33.696 52.192C32.384 52.192 31.188 51.972 30.108 51.532C29.028 51.084 28.1 50.464 27.324 49.672C26.556 48.88 25.96 47.944 25.536 46.864C25.112 45.776 24.9 44.596 24.9 43.324C24.9 42.052 25.112 40.876 25.536 39.796C25.96 38.708 26.556 37.768 27.324 36.976C28.1 36.184 29.028 35.568 30.108 35.128C31.188 34.68 32.384 34.456 33.696 34.456C34.576 34.456 35.404 34.56 36.18 34.768C36.956 34.968 37.668 35.256 38.316 35.632C38.964 36 39.544 36.452 40.056 36.988C40.576 37.516 41.016 38.108 41.376 38.764C41.736 39.42 42.008 40.132 42.192 40.9C42.384 41.668 42.48 42.476 42.48 43.324ZM39.18 43.324C39.18 42.372 39.052 41.52 38.796 40.768C38.54 40.008 38.176 39.364 37.704 38.836C37.232 38.308 36.656 37.904 35.976 37.624C35.304 37.344 34.544 37.204 33.696 37.204C32.848 37.204 32.084 37.344 31.404 37.624C30.732 37.904 30.156 38.308 29.676 38.836C29.204 39.364 28.84 40.008 28.584 40.768C28.328 41.52 28.2 42.372 28.2 43.324C28.2 44.276 28.328 45.132 28.584 45.892C28.84 46.644 29.204 47.284 29.676 47.812C30.156 48.332 30.732 48.732 31.404 49.012C32.084 49.292 32.848 49.432 33.696 49.432C34.544 49.432 35.304 49.292 35.976 49.012C36.656 48.732 37.232 48.332 37.704 47.812C38.176 47.284 38.54 46.644 38.796 45.892C39.052 45.132 39.18 44.276 39.18 43.324ZM55.2908 39.688V52H53.4788C53.0868 52 52.8388 51.82 52.7348 51.46L52.5308 50.476C52.0268 50.988 51.4708 51.404 50.8628 51.724C50.2548 52.036 49.5388 52.192 48.7148 52.192C48.0428 52.192 47.4468 52.08 46.9268 51.856C46.4148 51.624 45.9828 51.3 45.6308 50.884C45.2788 50.468 45.0108 49.976 44.8268 49.408C44.6508 48.832 44.5628 48.2 44.5628 47.512V39.688H47.5268V47.512C47.5268 48.264 47.6988 48.848 48.0428 49.264C48.3948 49.672 48.9188 49.876 49.6148 49.876C50.1268 49.876 50.6068 49.764 51.0548 49.54C51.5028 49.308 51.9268 48.992 52.3268 48.592V39.688H55.2908ZM61.0256 41.824C61.4096 41.088 61.8656 40.512 62.3936 40.096C62.9216 39.672 63.5456 39.46 64.2656 39.46C64.8336 39.46 65.2896 39.584 65.6336 39.832L65.4416 42.052C65.4016 42.196 65.3416 42.3 65.2616 42.364C65.1896 42.42 65.0896 42.448 64.9616 42.448C64.8416 42.448 64.6616 42.428 64.4216 42.388C64.1896 42.348 63.9616 42.328 63.7376 42.328C63.4096 42.328 63.1176 42.376 62.8616 42.472C62.6056 42.568 62.3736 42.708 62.1656 42.892C61.9656 43.068 61.7856 43.284 61.6256 43.54C61.4736 43.796 61.3296 44.088 61.1936 44.416V52H58.2296V39.688H59.9696C60.2736 39.688 60.4856 39.744 60.6056 39.856C60.7256 39.96 60.8056 40.152 60.8456 40.432L61.0256 41.824ZM87.2751 43.3V50.32C86.3951 50.968 85.4551 51.444 84.4551 51.748C83.4631 52.044 82.3991 52.192 81.2631 52.192C79.8471 52.192 78.5631 51.972 77.4111 51.532C76.2671 51.092 75.2871 50.48 74.4711 49.696C73.6631 48.912 73.0391 47.976 72.5991 46.888C72.1591 45.8 71.9391 44.612 71.9391 43.324C71.9391 42.02 72.1511 40.824 72.5751 39.736C72.9991 38.648 73.5991 37.712 74.3751 36.928C75.1591 36.144 76.1071 35.536 77.2191 35.104C78.3311 34.672 79.5791 34.456 80.9631 34.456C81.6671 34.456 82.3231 34.512 82.9311 34.624C83.5471 34.736 84.1151 34.892 84.6351 35.092C85.1631 35.284 85.6431 35.52 86.0751 35.8C86.5071 36.08 86.9031 36.388 87.2631 36.724L86.3391 38.188C86.1951 38.42 86.0071 38.564 85.7751 38.62C85.5431 38.668 85.2911 38.608 85.0191 38.44C84.7551 38.288 84.4911 38.136 84.2271 37.984C83.9631 37.832 83.6671 37.7 83.3391 37.588C83.0191 37.476 82.6551 37.384 82.2471 37.312C81.8471 37.24 81.3831 37.204 80.8551 37.204C79.9991 37.204 79.2231 37.348 78.5271 37.636C77.8391 37.924 77.2511 38.336 76.7631 38.872C76.2751 39.408 75.8991 40.052 75.6351 40.804C75.3711 41.556 75.2391 42.396 75.2391 43.324C75.2391 44.316 75.3791 45.204 75.6591 45.988C75.9471 46.764 76.3471 47.424 76.8591 47.968C77.3791 48.504 78.0031 48.916 78.7311 49.204C79.4591 49.484 80.2711 49.624 81.1671 49.624C81.8071 49.624 82.3791 49.556 82.8831 49.42C83.3871 49.284 83.8791 49.1 84.3591 48.868V45.724H82.1751C81.9671 45.724 81.8031 45.668 81.6831 45.556C81.5711 45.436 81.5151 45.292 81.5151 45.124V43.3H87.2751ZM92.5256 41.824C92.9096 41.088 93.3656 40.512 93.8936 40.096C94.4216 39.672 95.0456 39.46 95.7656 39.46C96.3336 39.46 96.7896 39.584 97.1336 39.832L96.9416 42.052C96.9016 42.196 96.8416 42.3 96.7616 42.364C96.6896 42.42 96.5896 42.448 96.4616 42.448C96.3416 42.448 96.1616 42.428 95.9216 42.388C95.6896 42.348 95.4616 42.328 95.2376 42.328C94.9096 42.328 94.6176 42.376 94.3616 42.472C94.1056 42.568 93.8736 42.708 93.6656 42.892C93.4656 43.068 93.2856 43.284 93.1256 43.54C92.9736 43.796 92.8296 44.088 92.6936 44.416V52H89.7296V39.688H91.4696C91.7736 39.688 91.9856 39.744 92.1056 39.856C92.2256 39.96 92.3056 40.152 92.3456 40.432L92.5256 41.824ZM103.779 39.496C104.691 39.496 105.519 39.644 106.263 39.94C107.015 40.236 107.655 40.656 108.183 41.2C108.719 41.744 109.131 42.408 109.419 43.192C109.707 43.976 109.851 44.852 109.851 45.82C109.851 46.796 109.707 47.676 109.419 48.46C109.131 49.244 108.719 49.912 108.183 50.464C107.655 51.016 107.015 51.44 106.263 51.736C105.519 52.032 104.691 52.18 103.779 52.18C102.859 52.18 102.023 52.032 101.271 51.736C100.519 51.44 99.8752 51.016 99.3392 50.464C98.8112 49.912 98.3992 49.244 98.1032 48.46C97.8152 47.676 97.6712 46.796 97.6712 45.82C97.6712 44.852 97.8152 43.976 98.1032 43.192C98.3992 42.408 98.8112 41.744 99.3392 41.2C99.8752 40.656 100.519 40.236 101.271 39.94C102.023 39.644 102.859 39.496 103.779 39.496ZM103.779 49.9C104.803 49.9 105.559 49.556 106.047 48.868C106.543 48.18 106.791 47.172 106.791 45.844C106.791 44.516 106.543 43.504 106.047 42.808C105.559 42.112 104.803 41.764 103.779 41.764C102.739 41.764 101.967 42.116 101.463 42.82C100.967 43.516 100.719 44.524 100.719 45.844C100.719 47.164 100.967 48.172 101.463 48.868C101.967 49.556 102.739 49.9 103.779 49.9ZM129.482 39.688L125.57 52H123.194C122.922 52 122.734 51.824 122.63 51.472L120.422 44.356C120.35 44.116 120.282 43.88 120.218 43.648C120.162 43.408 120.114 43.168 120.074 42.928C120.026 43.168 119.97 43.412 119.906 43.66C119.85 43.9 119.786 44.14 119.714 44.38L117.47 51.472C117.374 51.824 117.162 52 116.834 52H114.554L110.654 39.688H113.018C113.234 39.688 113.418 39.74 113.57 39.844C113.722 39.948 113.822 40.08 113.87 40.24L115.634 46.816C115.722 47.176 115.798 47.528 115.862 47.872C115.934 48.216 115.994 48.56 116.042 48.904C116.13 48.56 116.222 48.216 116.318 47.872C116.422 47.528 116.53 47.176 116.642 46.816L118.682 40.216C118.73 40.056 118.822 39.924 118.958 39.82C119.102 39.716 119.274 39.664 119.474 39.664H120.782C120.99 39.664 121.166 39.716 121.31 39.82C121.462 39.924 121.562 40.056 121.61 40.216L123.59 46.816C123.694 47.176 123.79 47.532 123.878 47.884C123.974 48.228 124.066 48.572 124.154 48.916C124.258 48.236 124.406 47.536 124.598 46.816L126.41 40.24C126.466 40.08 126.566 39.948 126.71 39.844C126.854 39.74 127.026 39.688 127.226 39.688H129.482ZM145.35 45.448L143.238 39.676C143.134 39.42 143.026 39.116 142.914 38.764C142.802 38.412 142.69 38.032 142.578 37.624C142.474 38.032 142.366 38.416 142.254 38.776C142.142 39.128 142.034 39.436 141.93 39.7L139.83 45.448H145.35ZM151.05 52H148.554C148.274 52 148.046 51.932 147.87 51.796C147.694 51.652 147.562 51.476 147.474 51.268L146.178 47.728H138.99L137.694 51.268C137.63 51.452 137.506 51.62 137.322 51.772C137.138 51.924 136.91 52 136.638 52H134.118L140.946 34.648H144.234L151.05 52ZM160.87 42.292C160.782 42.404 160.694 42.492 160.606 42.556C160.526 42.62 160.406 42.652 160.246 42.652C160.094 42.652 159.946 42.608 159.802 42.52C159.658 42.424 159.486 42.32 159.286 42.208C159.086 42.088 158.846 41.984 158.566 41.896C158.294 41.8 157.954 41.752 157.546 41.752C157.026 41.752 156.57 41.848 156.178 42.04C155.786 42.224 155.458 42.492 155.194 42.844C154.938 43.196 154.746 43.624 154.618 44.128C154.49 44.624 154.426 45.188 154.426 45.82C154.426 46.476 154.494 47.06 154.63 47.572C154.774 48.084 154.978 48.516 155.242 48.868C155.506 49.212 155.826 49.476 156.202 49.66C156.578 49.836 157.002 49.924 157.474 49.924C157.946 49.924 158.326 49.868 158.614 49.756C158.91 49.636 159.158 49.508 159.358 49.372C159.558 49.228 159.73 49.1 159.874 48.988C160.026 48.868 160.194 48.808 160.378 48.808C160.618 48.808 160.798 48.9 160.918 49.084L161.77 50.164C161.442 50.548 161.086 50.872 160.702 51.136C160.318 51.392 159.918 51.6 159.502 51.76C159.094 51.912 158.67 52.02 158.23 52.084C157.798 52.148 157.366 52.18 156.934 52.18C156.174 52.18 155.458 52.04 154.786 51.76C154.114 51.472 153.526 51.056 153.022 50.512C152.518 49.968 152.118 49.304 151.822 48.52C151.534 47.728 151.39 46.828 151.39 45.82C151.39 44.916 151.518 44.08 151.774 43.312C152.038 42.536 152.422 41.868 152.926 41.308C153.43 40.74 154.054 40.296 154.798 39.976C155.542 39.656 156.398 39.496 157.366 39.496C158.286 39.496 159.09 39.644 159.778 39.94C160.474 40.236 161.098 40.66 161.65 41.212L160.87 42.292ZM176.048 52H173.084V41.908H167.372V48.58C167.372 48.964 167.464 49.264 167.648 49.48C167.84 49.696 168.1 49.804 168.428 49.804C168.612 49.804 168.764 49.784 168.884 49.744C169.012 49.696 169.12 49.648 169.208 49.6C169.304 49.552 169.388 49.508 169.46 49.468C169.532 49.42 169.604 49.396 169.676 49.396C169.764 49.396 169.836 49.42 169.892 49.468C169.948 49.508 170.008 49.572 170.072 49.66L170.96 51.1C170.528 51.46 170.032 51.732 169.472 51.916C168.912 52.1 168.332 52.192 167.732 52.192C166.66 52.192 165.836 51.892 165.26 51.292C164.692 50.684 164.408 49.848 164.408 48.784V41.908H163.148C162.988 41.908 162.852 41.856 162.74 41.752C162.628 41.648 162.572 41.492 162.572 41.284V40.108L164.552 39.772L165.176 36.424C165.216 36.264 165.292 36.14 165.404 36.052C165.516 35.964 165.66 35.92 165.836 35.92H167.372V39.796H176.048V52ZM176.564 36.052C176.564 36.308 176.512 36.552 176.408 36.784C176.304 37.008 176.164 37.204 175.988 37.372C175.82 37.54 175.616 37.676 175.376 37.78C175.144 37.876 174.896 37.924 174.632 37.924C174.376 37.924 174.136 37.876 173.912 37.78C173.688 37.676 173.492 37.54 173.324 37.372C173.156 37.204 173.02 37.008 172.916 36.784C172.82 36.552 172.772 36.308 172.772 36.052C172.772 35.788 172.82 35.544 172.916 35.32C173.02 35.088 173.156 34.888 173.324 34.72C173.492 34.544 173.688 34.408 173.912 34.312C174.136 34.208 174.376 34.156 174.632 34.156C174.896 34.156 175.144 34.208 175.376 34.312C175.616 34.408 175.82 34.544 175.988 34.72C176.164 34.888 176.304 35.088 176.408 35.32C176.512 35.544 176.564 35.788 176.564 36.052ZM190.173 39.688L185.289 52H182.601L177.717 39.688H180.165C180.389 39.688 180.573 39.74 180.717 39.844C180.869 39.948 180.969 40.08 181.017 40.24L183.393 46.816C183.521 47.2 183.633 47.576 183.729 47.944C183.825 48.312 183.909 48.68 183.981 49.048C184.061 48.68 184.149 48.312 184.245 47.944C184.341 47.576 184.457 47.2 184.593 46.816L187.017 40.24C187.073 40.08 187.173 39.948 187.317 39.844C187.461 39.74 187.633 39.688 187.833 39.688H190.173ZM204.173 52H201.209V41.908H195.497V48.58C195.497 48.964 195.589 49.264 195.773 49.48C195.965 49.696 196.225 49.804 196.553 49.804C196.737 49.804 196.889 49.784 197.009 49.744C197.137 49.696 197.245 49.648 197.333 49.6C197.429 49.552 197.513 49.508 197.585 49.468C197.657 49.42 197.729 49.396 197.801 49.396C197.889 49.396 197.961 49.42 198.017 49.468C198.073 49.508 198.133 49.572 198.197 49.66L199.085 51.1C198.653 51.46 198.157 51.732 197.597 51.916C197.037 52.1 196.457 52.192 195.857 52.192C194.785 52.192 193.961 51.892 193.385 51.292C192.817 50.684 192.533 49.848 192.533 48.784V41.908H191.273C191.113 41.908 190.977 41.856 190.865 41.752C190.753 41.648 190.697 41.492 190.697 41.284V40.108L192.677 39.772L193.301 36.424C193.341 36.264 193.417 36.14 193.529 36.052C193.641 35.964 193.785 35.92 193.961 35.92H195.497V39.796H204.173V52ZM204.689 36.052C204.689 36.308 204.637 36.552 204.533 36.784C204.429 37.008 204.289 37.204 204.113 37.372C203.945 37.54 203.741 37.676 203.501 37.78C203.269 37.876 203.021 37.924 202.757 37.924C202.501 37.924 202.261 37.876 202.037 37.78C201.813 37.676 201.617 37.54 201.449 37.372C201.281 37.204 201.145 37.008 201.041 36.784C200.945 36.552 200.897 36.308 200.897 36.052C200.897 35.788 200.945 35.544 201.041 35.32C201.145 35.088 201.281 34.888 201.449 34.72C201.617 34.544 201.813 34.408 202.037 34.312C202.261 34.208 202.501 34.156 202.757 34.156C203.021 34.156 203.269 34.208 203.501 34.312C203.741 34.408 203.945 34.544 204.113 34.72C204.289 34.888 204.429 35.088 204.533 35.32C204.637 35.544 204.689 35.788 204.689 36.052ZM215.13 44.428C215.13 44.044 215.074 43.684 214.962 43.348C214.858 43.004 214.698 42.704 214.482 42.448C214.266 42.192 213.99 41.992 213.654 41.848C213.326 41.696 212.942 41.62 212.502 41.62C211.646 41.62 210.97 41.864 210.474 42.352C209.986 42.84 209.674 43.532 209.538 44.428H215.13ZM209.478 46.216C209.526 46.848 209.638 47.396 209.814 47.86C209.99 48.316 210.222 48.696 210.51 49C210.798 49.296 211.138 49.52 211.53 49.672C211.93 49.816 212.37 49.888 212.85 49.888C213.33 49.888 213.742 49.832 214.086 49.72C214.438 49.608 214.742 49.484 214.998 49.348C215.262 49.212 215.49 49.088 215.682 48.976C215.882 48.864 216.074 48.808 216.258 48.808C216.506 48.808 216.69 48.9 216.81 49.084L217.662 50.164C217.334 50.548 216.966 50.872 216.558 51.136C216.15 51.392 215.722 51.6 215.274 51.76C214.834 51.912 214.382 52.02 213.918 52.084C213.462 52.148 213.018 52.18 212.586 52.18C211.73 52.18 210.934 52.04 210.198 51.76C209.462 51.472 208.822 51.052 208.278 50.5C207.734 49.94 207.306 49.252 206.994 48.436C206.682 47.612 206.526 46.66 206.526 45.58C206.526 44.74 206.662 43.952 206.934 43.216C207.206 42.472 207.594 41.828 208.098 41.284C208.61 40.732 209.23 40.296 209.958 39.976C210.694 39.656 211.522 39.496 212.442 39.496C213.218 39.496 213.934 39.62 214.59 39.868C215.246 40.116 215.81 40.48 216.282 40.96C216.754 41.432 217.122 42.016 217.386 42.712C217.658 43.4 217.794 44.188 217.794 45.076C217.794 45.524 217.746 45.828 217.65 45.988C217.554 46.14 217.37 46.216 217.098 46.216H209.478ZM227.531 42.088C227.451 42.216 227.367 42.308 227.279 42.364C227.191 42.412 227.079 42.436 226.943 42.436C226.799 42.436 226.643 42.396 226.475 42.316C226.315 42.236 226.127 42.148 225.911 42.052C225.695 41.948 225.447 41.856 225.167 41.776C224.895 41.696 224.571 41.656 224.195 41.656C223.611 41.656 223.151 41.78 222.815 42.028C222.487 42.276 222.323 42.6 222.323 43C222.323 43.264 222.407 43.488 222.575 43.672C222.751 43.848 222.979 44.004 223.259 44.14C223.547 44.276 223.871 44.4 224.231 44.512C224.591 44.616 224.955 44.732 225.323 44.86C225.699 44.988 226.067 45.136 226.427 45.304C226.787 45.464 227.107 45.672 227.387 45.928C227.675 46.176 227.903 46.476 228.071 46.828C228.247 47.18 228.335 47.604 228.335 48.1C228.335 48.692 228.227 49.24 228.011 49.744C227.803 50.24 227.491 50.672 227.075 51.04C226.659 51.4 226.143 51.684 225.527 51.892C224.919 52.092 224.215 52.192 223.415 52.192C222.991 52.192 222.575 52.152 222.167 52.072C221.767 52 221.379 51.896 221.003 51.76C220.635 51.624 220.291 51.464 219.971 51.28C219.659 51.096 219.383 50.896 219.143 50.68L219.827 49.552C219.915 49.416 220.019 49.312 220.139 49.24C220.259 49.168 220.411 49.132 220.595 49.132C220.779 49.132 220.951 49.184 221.111 49.288C221.279 49.392 221.471 49.504 221.687 49.624C221.903 49.744 222.155 49.856 222.443 49.96C222.739 50.064 223.111 50.116 223.559 50.116C223.911 50.116 224.211 50.076 224.459 49.996C224.715 49.908 224.923 49.796 225.083 49.66C225.251 49.524 225.371 49.368 225.443 49.192C225.523 49.008 225.563 48.82 225.563 48.628C225.563 48.34 225.475 48.104 225.299 47.92C225.131 47.736 224.903 47.576 224.615 47.44C224.335 47.304 224.011 47.184 223.643 47.08C223.283 46.968 222.911 46.848 222.527 46.72C222.151 46.592 221.779 46.444 221.411 46.276C221.051 46.1 220.727 45.88 220.439 45.616C220.159 45.352 219.931 45.028 219.755 44.644C219.587 44.26 219.503 43.796 219.503 43.252C219.503 42.748 219.603 42.268 219.803 41.812C220.003 41.356 220.295 40.96 220.679 40.624C221.071 40.28 221.555 40.008 222.131 39.808C222.715 39.6 223.387 39.496 224.147 39.496C224.995 39.496 225.767 39.636 226.463 39.916C227.159 40.196 227.739 40.564 228.203 41.02L227.531 42.088Z" fill="black"/>
<path d="M34.234 78.146C35.3673 78.146 36.4043 78.316 37.345 78.656C38.2857 78.9847 39.0903 79.455 39.759 80.067C40.4277 80.679 40.949 81.4157 41.323 82.277C41.697 83.1383 41.884 84.096 41.884 85.15C41.884 86.0567 41.748 86.8953 41.476 87.666C41.2153 88.4367 40.8583 89.1733 40.405 89.876C39.963 90.5787 39.4417 91.2587 38.841 91.916C38.2403 92.5733 37.6113 93.242 36.954 93.922L31.412 99.583C31.956 99.4243 32.4887 99.3053 33.01 99.226C33.5313 99.1353 34.03 99.09 34.506 99.09H40.813C41.2663 99.09 41.6233 99.2203 41.884 99.481C42.156 99.7303 42.292 100.065 42.292 100.484V103H25.428V101.606C25.428 101.323 25.4847 101.028 25.598 100.722C25.7227 100.416 25.9153 100.133 26.176 99.872L33.639 92.392C34.2623 91.7573 34.8177 91.151 35.305 90.573C35.8037 89.995 36.2173 89.4227 36.546 88.856C36.886 88.2893 37.141 87.717 37.311 87.139C37.4923 86.5497 37.583 85.932 37.583 85.286C37.583 84.6967 37.498 84.181 37.328 83.739C37.158 83.2857 36.9143 82.906 36.597 82.6C36.2797 82.294 35.9 82.0673 35.458 81.92C35.0273 81.7613 34.54 81.682 33.996 81.682C32.9873 81.682 32.1543 81.937 31.497 82.447C30.851 82.957 30.3977 83.6427 30.137 84.504C30.0123 84.9347 29.8253 85.2463 29.576 85.439C29.3267 85.6203 29.0093 85.711 28.624 85.711C28.454 85.711 28.267 85.694 28.063 85.66L25.853 85.269C26.023 84.0903 26.3517 83.059 26.839 82.175C27.3263 81.2797 27.9327 80.5373 28.658 79.948C29.3947 79.3473 30.2333 78.8997 31.174 78.605C32.126 78.299 33.146 78.146 34.234 78.146ZM60.5357 80.203C60.5357 80.8037 60.343 81.291 59.9577 81.665C59.5837 82.039 58.9547 82.226 58.0707 82.226H51.3047L50.4207 87.36C51.5313 87.1333 52.5457 87.02 53.4637 87.02C54.7557 87.02 55.889 87.2127 56.8637 87.598C57.8497 87.9833 58.677 88.516 59.3457 89.196C60.0143 89.876 60.5187 90.675 60.8587 91.593C61.1987 92.4997 61.3687 93.48 61.3687 94.534C61.3687 95.8373 61.1363 97.0273 60.6717 98.104C60.2183 99.1807 59.5837 100.104 58.7677 100.875C57.9517 101.634 56.9827 102.224 55.8607 102.643C54.75 103.062 53.5373 103.272 52.2227 103.272C51.452 103.272 50.721 103.193 50.0297 103.034C49.3383 102.875 48.6867 102.666 48.0747 102.405C47.474 102.133 46.913 101.827 46.3917 101.487C45.8817 101.136 45.4227 100.767 45.0147 100.382L46.3067 98.597C46.5787 98.2117 46.9413 98.019 47.3947 98.019C47.678 98.019 47.9613 98.1097 48.2447 98.291C48.5393 98.4723 48.8793 98.6707 49.2647 98.886C49.65 99.1013 50.0977 99.2997 50.6077 99.481C51.1177 99.6623 51.7353 99.753 52.4607 99.753C53.2313 99.753 53.9113 99.6283 54.5007 99.379C55.09 99.1297 55.5773 98.784 55.9627 98.342C56.3593 97.8887 56.654 97.356 56.8467 96.744C57.0507 96.1207 57.1527 95.4463 57.1527 94.721C57.1527 93.3837 56.7617 92.341 55.9797 91.593C55.209 90.8337 54.07 90.454 52.5627 90.454C51.3727 90.454 50.177 90.6693 48.9757 91.1L46.3577 90.352L48.3977 78.418H60.5357V80.203ZM74.8353 87.649C75.7646 87.649 76.6656 87.802 77.5383 88.108C78.4223 88.414 79.1986 88.8787 79.8673 89.502C80.536 90.114 81.0743 90.879 81.4823 91.797C81.8903 92.715 82.0943 93.786 82.0943 95.01C82.0943 96.1547 81.8846 97.2313 81.4653 98.24C81.046 99.2373 80.4566 100.11 79.6973 100.858C78.938 101.606 78.02 102.195 76.9433 102.626C75.878 103.057 74.6993 103.272 73.4073 103.272C72.0926 103.272 70.914 103.062 69.8713 102.643C68.8286 102.224 67.939 101.64 67.2023 100.892C66.4656 100.133 65.899 99.226 65.5023 98.172C65.117 97.1067 64.9243 95.928 64.9243 94.636C64.9243 93.48 65.1566 92.2957 65.6213 91.083C66.0973 89.859 66.8283 88.5897 67.8143 87.275L73.6793 79.404C73.8833 79.132 74.178 78.8997 74.5633 78.707C74.96 78.5143 75.4133 78.418 75.9233 78.418H79.6633L72.3703 87.343C72.2116 87.5357 72.0586 87.717 71.9113 87.887C71.7753 88.057 71.6393 88.2327 71.5033 88.414C71.9793 88.176 72.4893 87.989 73.0333 87.853C73.5886 87.717 74.1893 87.649 74.8353 87.649ZM68.9533 95.282C68.9533 95.962 69.044 96.5853 69.2253 97.152C69.418 97.7073 69.6956 98.1833 70.0583 98.58C70.4323 98.9767 70.8913 99.2883 71.4353 99.515C71.9793 99.7303 72.6083 99.838 73.3223 99.838C73.991 99.838 74.603 99.7247 75.1583 99.498C75.725 99.2713 76.2066 98.954 76.6033 98.546C77.0113 98.138 77.3286 97.662 77.5553 97.118C77.782 96.5627 77.8953 95.962 77.8953 95.316C77.8953 94.6133 77.7876 93.9843 77.5723 93.429C77.357 92.8623 77.051 92.3863 76.6543 92.001C76.2576 91.6043 75.7816 91.304 75.2263 91.1C74.671 90.896 74.059 90.794 73.3903 90.794C72.7216 90.794 72.1153 90.9073 71.5713 91.134C71.0273 91.3607 70.557 91.678 70.1603 92.086C69.775 92.4827 69.4746 92.9587 69.2593 93.514C69.0553 94.058 68.9533 94.6473 68.9533 95.282ZM84.409 100.688C84.409 100.337 84.4713 100.002 84.596 99.685C84.732 99.3677 84.9133 99.0957 85.14 98.869C85.378 98.6423 85.6556 98.461 85.973 98.325C86.2903 98.189 86.6303 98.121 86.993 98.121C87.3443 98.121 87.6786 98.189 87.996 98.325C88.3133 98.461 88.5853 98.6423 88.812 98.869C89.0386 99.0957 89.22 99.3677 89.356 99.685C89.492 100.002 89.56 100.337 89.56 100.688C89.56 101.051 89.492 101.391 89.356 101.708C89.22 102.014 89.0386 102.28 88.812 102.507C88.5853 102.734 88.3133 102.909 87.996 103.034C87.6786 103.17 87.3443 103.238 86.993 103.238C86.6303 103.238 86.2903 103.17 85.973 103.034C85.6556 102.909 85.378 102.734 85.14 102.507C84.9133 102.28 84.732 102.014 84.596 101.708C84.4713 101.391 84.409 101.051 84.409 100.688ZM100.665 103.272C99.3954 103.272 98.2337 103.102 97.1797 102.762C96.137 102.422 95.2417 101.94 94.4937 101.317C93.7457 100.694 93.162 99.94 92.7427 99.056C92.3347 98.172 92.1307 97.186 92.1307 96.098C92.1307 94.6473 92.4877 93.4233 93.2017 92.426C93.9157 91.4173 95.0264 90.6693 96.5337 90.182C95.3324 89.6833 94.4314 88.975 93.8307 88.057C93.2414 87.139 92.9467 86.034 92.9467 84.742C92.9467 83.8127 93.1337 82.9457 93.5077 82.141C93.893 81.3363 94.4257 80.6393 95.1057 80.05C95.7857 79.4493 96.596 78.9847 97.5367 78.656C98.4887 78.316 99.5314 78.146 100.665 78.146C101.798 78.146 102.835 78.316 103.776 78.656C104.728 78.9847 105.544 79.4493 106.224 80.05C106.904 80.6393 107.431 81.3363 107.805 82.141C108.19 82.9457 108.383 83.8127 108.383 84.742C108.383 86.034 108.082 87.139 107.482 88.057C106.881 88.975 105.986 89.6833 104.796 90.182C106.303 90.6693 107.414 91.4173 108.128 92.426C108.842 93.4233 109.199 94.6473 109.199 96.098C109.199 97.186 108.989 98.172 108.57 99.056C108.162 99.94 107.584 100.694 106.836 101.317C106.088 101.94 105.187 102.422 104.133 102.762C103.09 103.102 101.934 103.272 100.665 103.272ZM100.665 99.991C101.356 99.991 101.962 99.8947 102.484 99.702C103.005 99.498 103.441 99.2203 103.793 98.869C104.155 98.5177 104.427 98.0983 104.609 97.611C104.79 97.1237 104.881 96.5967 104.881 96.03C104.881 94.6813 104.507 93.6613 103.759 92.97C103.011 92.2787 101.979 91.933 100.665 91.933C99.35 91.933 98.3187 92.2787 97.5707 92.97C96.8227 93.6613 96.4487 94.6813 96.4487 96.03C96.4487 96.5967 96.5394 97.1237 96.7207 97.611C96.902 98.0983 97.1684 98.5177 97.5197 98.869C97.8824 99.2203 98.3244 99.498 98.8457 99.702C99.367 99.8947 99.9734 99.991 100.665 99.991ZM100.665 88.635C101.345 88.635 101.917 88.5273 102.382 88.312C102.846 88.0967 103.22 87.8133 103.504 87.462C103.787 87.0993 103.985 86.6913 104.099 86.238C104.223 85.7733 104.286 85.2973 104.286 84.81C104.286 84.3453 104.212 83.9033 104.065 83.484C103.917 83.0647 103.696 82.6963 103.402 82.379C103.107 82.0503 102.733 81.7897 102.28 81.597C101.826 81.4043 101.288 81.308 100.665 81.308C100.041 81.308 99.503 81.4043 99.0497 81.597C98.5964 81.7897 98.2167 82.0503 97.9107 82.379C97.616 82.6963 97.395 83.0647 97.2477 83.484C97.1117 83.9033 97.0437 84.3453 97.0437 84.81C97.0437 85.2973 97.1004 85.7733 97.2137 86.238C97.3384 86.6913 97.5424 87.0993 97.8257 87.462C98.109 87.8133 98.483 88.0967 98.9477 88.312C99.4124 88.5273 99.9847 88.635 100.665 88.635ZM119.537 93.191C118.687 93.191 117.854 93.0437 117.038 92.749C116.222 92.4543 115.491 92.0123 114.845 91.423C114.211 90.8223 113.701 90.0857 113.315 89.213C112.93 88.329 112.737 87.2977 112.737 86.119C112.737 85.0197 112.941 83.9883 113.349 83.025C113.757 82.0617 114.33 81.2173 115.066 80.492C115.803 79.7667 116.687 79.1943 117.718 78.775C118.75 78.3557 119.889 78.146 121.135 78.146C122.393 78.146 123.521 78.3443 124.518 78.741C125.527 79.1377 126.383 79.693 127.085 80.407C127.799 81.121 128.343 81.9767 128.717 82.974C129.103 83.9713 129.295 85.065 129.295 86.255C129.295 87.0143 129.227 87.734 129.091 88.414C128.967 89.094 128.78 89.7513 128.53 90.386C128.292 91.0093 128.003 91.6213 127.663 92.222C127.323 92.8113 126.944 93.4063 126.524 94.007L120.897 102.031C120.705 102.303 120.416 102.535 120.03 102.728C119.656 102.909 119.226 103 118.738 103H114.879L122.512 93.463C122.705 93.225 122.886 92.9927 123.056 92.766C123.226 92.5393 123.391 92.3127 123.549 92.086C122.983 92.4487 122.359 92.7263 121.679 92.919C120.999 93.1003 120.285 93.191 119.537 93.191ZM125.266 85.83C125.266 85.1613 125.164 84.5663 124.96 84.045C124.756 83.5123 124.467 83.0647 124.093 82.702C123.719 82.3393 123.272 82.0617 122.75 81.869C122.24 81.6763 121.679 81.58 121.067 81.58C120.433 81.58 119.86 81.6877 119.35 81.903C118.84 82.107 118.404 82.396 118.041 82.77C117.69 83.144 117.418 83.5917 117.225 84.113C117.033 84.623 116.936 85.184 116.936 85.796C116.936 87.1673 117.288 88.2157 117.99 88.941C118.704 89.655 119.713 90.012 121.016 90.012C121.696 90.012 122.297 89.9043 122.818 89.689C123.351 89.4737 123.799 89.179 124.161 88.805C124.524 88.431 124.796 87.989 124.977 87.479C125.17 86.969 125.266 86.4193 125.266 85.83Z" fill="black"/>
<path d="M63.89 126.59C63.89 126.943 63.7767 127.23 63.55 127.45C63.33 127.67 62.96 127.78 62.44 127.78H58.46L57.94 130.8C58.5933 130.667 59.19 130.6 59.73 130.6C60.49 130.6 61.1567 130.713 61.73 130.94C62.31 131.167 62.7967 131.48 63.19 131.88C63.5833 132.28 63.88 132.75 64.08 133.29C64.28 133.823 64.38 134.4 64.38 135.02C64.38 135.787 64.2433 136.487 63.97 137.12C63.7033 137.753 63.33 138.297 62.85 138.75C62.37 139.197 61.8 139.543 61.14 139.79C60.4867 140.037 59.7733 140.16 59 140.16C58.5467 140.16 58.1167 140.113 57.71 140.02C57.3033 139.927 56.92 139.803 56.56 139.65C56.2067 139.49 55.8767 139.31 55.57 139.11C55.27 138.903 55 138.687 54.76 138.46L55.52 137.41C55.68 137.183 55.8933 137.07 56.16 137.07C56.3267 137.07 56.4933 137.123 56.66 137.23C56.8333 137.337 57.0333 137.453 57.26 137.58C57.4867 137.707 57.75 137.823 58.05 137.93C58.35 138.037 58.7133 138.09 59.14 138.09C59.5933 138.09 59.9933 138.017 60.34 137.87C60.6867 137.723 60.9733 137.52 61.2 137.26C61.4333 136.993 61.6067 136.68 61.72 136.32C61.84 135.953 61.9 135.557 61.9 135.13C61.9 134.343 61.67 133.73 61.21 133.29C60.7567 132.843 60.0867 132.62 59.2 132.62C58.5 132.62 57.7967 132.747 57.09 133L55.55 132.56L56.75 125.54H63.89V126.59ZM72.3016 130.97C72.8482 130.97 73.3782 131.06 73.8916 131.24C74.4116 131.42 74.8682 131.693 75.2616 132.06C75.6549 132.42 75.9716 132.87 76.2116 133.41C76.4516 133.95 76.5716 134.58 76.5716 135.3C76.5716 135.973 76.4482 136.607 76.2016 137.2C75.9549 137.787 75.6082 138.3 75.1616 138.74C74.7149 139.18 74.1749 139.527 73.5416 139.78C72.9149 140.033 72.2216 140.16 71.4616 140.16C70.6882 140.16 69.9949 140.037 69.3816 139.79C68.7682 139.543 68.2449 139.2 67.8116 138.76C67.3782 138.313 67.0449 137.78 66.8116 137.16C66.5849 136.533 66.4716 135.84 66.4716 135.08C66.4716 134.4 66.6082 133.703 66.8816 132.99C67.1616 132.27 67.5916 131.523 68.1716 130.75L71.6216 126.12C71.7416 125.96 71.9149 125.823 72.1416 125.71C72.3749 125.597 72.6416 125.54 72.9416 125.54H75.1416L70.8516 130.79C70.7582 130.903 70.6682 131.01 70.5816 131.11C70.5016 131.21 70.4216 131.313 70.3416 131.42C70.6216 131.28 70.9216 131.17 71.2416 131.09C71.5682 131.01 71.9216 130.97 72.3016 130.97ZM68.8416 135.46C68.8416 135.86 68.8949 136.227 69.0016 136.56C69.1149 136.887 69.2782 137.167 69.4916 137.4C69.7116 137.633 69.9816 137.817 70.3016 137.95C70.6216 138.077 70.9916 138.14 71.4116 138.14C71.8049 138.14 72.1649 138.073 72.4916 137.94C72.8249 137.807 73.1082 137.62 73.3416 137.38C73.5816 137.14 73.7682 136.86 73.9016 136.54C74.0349 136.213 74.1016 135.86 74.1016 135.48C74.1016 135.067 74.0382 134.697 73.9116 134.37C73.7849 134.037 73.6049 133.757 73.3716 133.53C73.1382 133.297 72.8582 133.12 72.5316 133C72.2049 132.88 71.8449 132.82 71.4516 132.82C71.0582 132.82 70.7016 132.887 70.3816 133.02C70.0616 133.153 69.7849 133.34 69.5516 133.58C69.3249 133.813 69.1482 134.093 69.0216 134.42C68.9016 134.74 68.8416 135.087 68.8416 135.46ZM83.0031 140.16C82.2565 140.16 81.5731 140.06 80.9531 139.86C80.3398 139.66 79.8131 139.377 79.3731 139.01C78.9331 138.643 78.5898 138.2 78.3431 137.68C78.1031 137.16 77.9831 136.58 77.9831 135.94C77.9831 135.087 78.1931 134.367 78.6131 133.78C79.0331 133.187 79.6865 132.747 80.5731 132.46C79.8665 132.167 79.3365 131.75 78.9831 131.21C78.6365 130.67 78.4631 130.02 78.4631 129.26C78.4631 128.713 78.5731 128.203 78.7931 127.73C79.0198 127.257 79.3331 126.847 79.7331 126.5C80.1331 126.147 80.6098 125.873 81.1631 125.68C81.7231 125.48 82.3365 125.38 83.0031 125.38C83.6698 125.38 84.2798 125.48 84.8331 125.68C85.3931 125.873 85.8731 126.147 86.2731 126.5C86.6731 126.847 86.9831 127.257 87.2031 127.73C87.4298 128.203 87.5431 128.713 87.5431 129.26C87.5431 130.02 87.3665 130.67 87.0131 131.21C86.6598 131.75 86.1331 132.167 85.4331 132.46C86.3198 132.747 86.9731 133.187 87.3931 133.78C87.8131 134.367 88.0231 135.087 88.0231 135.94C88.0231 136.58 87.8998 137.16 87.6531 137.68C87.4131 138.2 87.0731 138.643 86.6331 139.01C86.1931 139.377 85.6631 139.66 85.0431 139.86C84.4298 140.06 83.7498 140.16 83.0031 140.16ZM83.0031 138.23C83.4098 138.23 83.7665 138.173 84.0731 138.06C84.3798 137.94 84.6365 137.777 84.8431 137.57C85.0565 137.363 85.2165 137.117 85.3231 136.83C85.4298 136.543 85.4831 136.233 85.4831 135.9C85.4831 135.107 85.2631 134.507 84.8231 134.1C84.3831 133.693 83.7765 133.49 83.0031 133.49C82.2298 133.49 81.6231 133.693 81.1831 134.1C80.7431 134.507 80.5231 135.107 80.5231 135.9C80.5231 136.233 80.5765 136.543 80.6831 136.83C80.7898 137.117 80.9465 137.363 81.1531 137.57C81.3665 137.777 81.6265 137.94 81.9331 138.06C82.2398 138.173 82.5965 138.23 83.0031 138.23ZM83.0031 131.55C83.4031 131.55 83.7398 131.487 84.0131 131.36C84.2865 131.233 84.5065 131.067 84.6731 130.86C84.8398 130.647 84.9565 130.407 85.0231 130.14C85.0965 129.867 85.1331 129.587 85.1331 129.3C85.1331 129.027 85.0898 128.767 85.0031 128.52C84.9165 128.273 84.7865 128.057 84.6131 127.87C84.4398 127.677 84.2198 127.523 83.9531 127.41C83.6865 127.297 83.3698 127.24 83.0031 127.24C82.6365 127.24 82.3198 127.297 82.0531 127.41C81.7865 127.523 81.5631 127.677 81.3831 127.87C81.2098 128.057 81.0798 128.273 80.9931 128.52C80.9131 128.767 80.8731 129.027 80.8731 129.3C80.8731 129.587 80.9065 129.867 80.9731 130.14C81.0465 130.407 81.1665 130.647 81.3331 130.86C81.4998 131.067 81.7198 131.233 81.9931 131.36C82.2665 131.487 82.6031 131.55 83.0031 131.55ZM89.5347 138.64C89.5347 138.433 89.5714 138.237 89.6447 138.05C89.7247 137.863 89.8314 137.703 89.9647 137.57C90.1047 137.437 90.268 137.33 90.4547 137.25C90.6414 137.17 90.8414 137.13 91.0547 137.13C91.2614 137.13 91.458 137.17 91.6447 137.25C91.8314 137.33 91.9914 137.437 92.1247 137.57C92.258 137.703 92.3647 137.863 92.4447 138.05C92.5247 138.237 92.5647 138.433 92.5647 138.64C92.5647 138.853 92.5247 139.053 92.4447 139.24C92.3647 139.42 92.258 139.577 92.1247 139.71C91.9914 139.843 91.8314 139.947 91.6447 140.02C91.458 140.1 91.2614 140.14 91.0547 140.14C90.8414 140.14 90.6414 140.1 90.4547 140.02C90.268 139.947 90.1047 139.843 89.9647 139.71C89.8314 139.577 89.7247 139.42 89.6447 139.24C89.5714 139.053 89.5347 138.853 89.5347 138.64ZM99.9969 130.97C100.544 130.97 101.074 131.06 101.587 131.24C102.107 131.42 102.564 131.693 102.957 132.06C103.35 132.42 103.667 132.87 103.907 133.41C104.147 133.95 104.267 134.58 104.267 135.3C104.267 135.973 104.144 136.607 103.897 137.2C103.65 137.787 103.304 138.3 102.857 138.74C102.41 139.18 101.87 139.527 101.237 139.78C100.61 140.033 99.9169 140.16 99.1569 140.16C98.3835 140.16 97.6902 140.037 97.0769 139.79C96.4635 139.543 95.9402 139.2 95.5069 138.76C95.0735 138.313 94.7402 137.78 94.5069 137.16C94.2802 136.533 94.1669 135.84 94.1669 135.08C94.1669 134.4 94.3035 133.703 94.5769 132.99C94.8569 132.27 95.2869 131.523 95.8669 130.75L99.3169 126.12C99.4369 125.96 99.6102 125.823 99.8369 125.71C100.07 125.597 100.337 125.54 100.637 125.54H102.837L98.5469 130.79C98.4535 130.903 98.3635 131.01 98.2769 131.11C98.1969 131.21 98.1169 131.313 98.0369 131.42C98.3169 131.28 98.6169 131.17 98.9369 131.09C99.2635 131.01 99.6169 130.97 99.9969 130.97ZM96.5369 135.46C96.5369 135.86 96.5902 136.227 96.6969 136.56C96.8102 136.887 96.9735 137.167 97.1869 137.4C97.4069 137.633 97.6769 137.817 97.9969 137.95C98.3169 138.077 98.6869 138.14 99.1069 138.14C99.5002 138.14 99.8602 138.073 100.187 137.94C100.52 137.807 100.804 137.62 101.037 137.38C101.277 137.14 101.464 136.86 101.597 136.54C101.73 136.213 101.797 135.86 101.797 135.48C101.797 135.067 101.734 134.697 101.607 134.37C101.48 134.037 101.3 133.757 101.067 133.53C100.834 133.297 100.554 133.12 100.227 133C99.9002 132.88 99.5402 132.82 99.1469 132.82C98.7535 132.82 98.3969 132.887 98.0769 133.02C97.7569 133.153 97.4802 133.34 97.2469 133.58C97.0202 133.813 96.8435 134.093 96.7169 134.42C96.5969 134.74 96.5369 135.087 96.5369 135.46ZM110.198 134.23C109.698 134.23 109.208 134.143 108.728 133.97C108.248 133.797 107.818 133.537 107.438 133.19C107.065 132.837 106.765 132.403 106.538 131.89C106.312 131.37 106.198 130.763 106.198 130.07C106.198 129.423 106.318 128.817 106.558 128.25C106.798 127.683 107.135 127.187 107.568 126.76C108.002 126.333 108.522 125.997 109.128 125.75C109.735 125.503 110.405 125.38 111.138 125.38C111.878 125.38 112.542 125.497 113.128 125.73C113.722 125.963 114.225 126.29 114.638 126.71C115.058 127.13 115.378 127.633 115.598 128.22C115.825 128.807 115.938 129.45 115.938 130.15C115.938 130.597 115.898 131.02 115.818 131.42C115.745 131.82 115.635 132.207 115.488 132.58C115.348 132.947 115.178 133.307 114.978 133.66C114.778 134.007 114.555 134.357 114.308 134.71L110.998 139.43C110.885 139.59 110.715 139.727 110.488 139.84C110.268 139.947 110.015 140 109.728 140H107.458L111.948 134.39C112.062 134.25 112.168 134.113 112.268 133.98C112.368 133.847 112.465 133.713 112.558 133.58C112.225 133.793 111.858 133.957 111.458 134.07C111.058 134.177 110.638 134.23 110.198 134.23ZM113.568 129.9C113.568 129.507 113.508 129.157 113.388 128.85C113.268 128.537 113.098 128.273 112.878 128.06C112.658 127.847 112.395 127.683 112.088 127.57C111.788 127.457 111.458 127.4 111.098 127.4C110.725 127.4 110.388 127.463 110.088 127.59C109.788 127.71 109.532 127.88 109.318 128.1C109.112 128.32 108.952 128.583 108.838 128.89C108.725 129.19 108.668 129.52 108.668 129.88C108.668 130.687 108.875 131.303 109.288 131.73C109.708 132.15 110.302 132.36 111.068 132.36C111.468 132.36 111.822 132.297 112.128 132.17C112.442 132.043 112.705 131.87 112.918 131.65C113.132 131.43 113.292 131.17 113.398 130.87C113.512 130.57 113.568 130.247 113.568 129.9ZM121.8 134.23C121.3 134.23 120.81 134.143 120.33 133.97C119.85 133.797 119.42 133.537 119.04 133.19C118.667 132.837 118.367 132.403 118.14 131.89C117.913 131.37 117.8 130.763 117.8 130.07C117.8 129.423 117.92 128.817 118.16 128.25C118.4 127.683 118.737 127.187 119.17 126.76C119.603 126.333 120.123 125.997 120.73 125.75C121.337 125.503 122.007 125.38 122.74 125.38C123.48 125.38 124.143 125.497 124.73 125.73C125.323 125.963 125.827 126.29 126.24 126.71C126.66 127.13 126.98 127.633 127.2 128.22C127.427 128.807 127.54 129.45 127.54 130.15C127.54 130.597 127.5 131.02 127.42 131.42C127.347 131.82 127.237 132.207 127.09 132.58C126.95 132.947 126.78 133.307 126.58 133.66C126.38 134.007 126.157 134.357 125.91 134.71L122.6 139.43C122.487 139.59 122.317 139.727 122.09 139.84C121.87 139.947 121.617 140 121.33 140H119.06L123.55 134.39C123.663 134.25 123.77 134.113 123.87 133.98C123.97 133.847 124.067 133.713 124.16 133.58C123.827 133.793 123.46 133.957 123.06 134.07C122.66 134.177 122.24 134.23 121.8 134.23ZM125.17 129.9C125.17 129.507 125.11 129.157 124.99 128.85C124.87 128.537 124.7 128.273 124.48 128.06C124.26 127.847 123.997 127.683 123.69 127.57C123.39 127.457 123.06 127.4 122.7 127.4C122.327 127.4 121.99 127.463 121.69 127.59C121.39 127.71 121.133 127.88 120.92 128.1C120.713 128.32 120.553 128.583 120.44 128.89C120.327 129.19 120.27 129.52 120.27 129.88C120.27 130.687 120.477 131.303 120.89 131.73C121.31 132.15 121.903 132.36 122.67 132.36C123.07 132.36 123.423 132.297 123.73 132.17C124.043 132.043 124.307 131.87 124.52 131.65C124.733 131.43 124.893 131.17 125 130.87C125.113 130.57 125.17 130.247 125.17 129.9ZM133.402 134.23C132.902 134.23 132.412 134.143 131.932 133.97C131.452 133.797 131.022 133.537 130.642 133.19C130.268 132.837 129.968 132.403 129.742 131.89C129.515 131.37 129.402 130.763 129.402 130.07C129.402 129.423 129.522 128.817 129.762 128.25C130.002 127.683 130.338 127.187 130.772 126.76C131.205 126.333 131.725 125.997 132.332 125.75C132.938 125.503 133.608 125.38 134.342 125.38C135.082 125.38 135.745 125.497 136.332 125.73C136.925 125.963 137.428 126.29 137.842 126.71C138.262 127.13 138.582 127.633 138.802 128.22C139.028 128.807 139.142 129.45 139.142 130.15C139.142 130.597 139.102 131.02 139.022 131.42C138.948 131.82 138.838 132.207 138.692 132.58C138.552 132.947 138.382 133.307 138.182 133.66C137.982 134.007 137.758 134.357 137.512 134.71L134.202 139.43C134.088 139.59 133.918 139.727 133.692 139.84C133.472 139.947 133.218 140 132.932 140H130.662L135.152 134.39C135.265 134.25 135.372 134.113 135.472 133.98C135.572 133.847 135.668 133.713 135.762 133.58C135.428 133.793 135.062 133.957 134.662 134.07C134.262 134.177 133.842 134.23 133.402 134.23ZM136.772 129.9C136.772 129.507 136.712 129.157 136.592 128.85C136.472 128.537 136.302 128.273 136.082 128.06C135.862 127.847 135.598 127.683 135.292 127.57C134.992 127.457 134.662 127.4 134.302 127.4C133.928 127.4 133.592 127.463 133.292 127.59C132.992 127.71 132.735 127.88 132.522 128.1C132.315 128.32 132.155 128.583 132.042 128.89C131.928 129.19 131.872 129.52 131.872 129.88C131.872 130.687 132.078 131.303 132.492 131.73C132.912 132.15 133.505 132.36 134.272 132.36C134.672 132.36 135.025 132.297 135.332 132.17C135.645 132.043 135.908 131.87 136.122 131.65C136.335 131.43 136.495 131.17 136.602 130.87C136.715 130.57 136.772 130.247 136.772 129.9Z" fill="black"/>
<path d="M139.392 93.928V98H137.24V86.432H141.008C141.781 86.432 142.451 86.5227 143.016 86.704C143.581 86.8853 144.048 87.1387 144.416 87.464C144.784 87.7893 145.056 88.1787 145.232 88.632C145.408 89.0853 145.496 89.5813 145.496 90.12C145.496 90.68 145.403 91.1947 145.216 91.664C145.029 92.128 144.749 92.528 144.376 92.864C144.003 93.2 143.536 93.4613 142.976 93.648C142.416 93.8347 141.76 93.928 141.008 93.928H139.392ZM139.392 92.248H141.008C141.403 92.248 141.747 92.2 142.04 92.104C142.333 92.0027 142.576 91.8613 142.768 91.68C142.96 91.4933 143.104 91.2693 143.2 91.008C143.296 90.7413 143.344 90.4453 143.344 90.12C143.344 89.8107 143.296 89.5307 143.2 89.28C143.104 89.0293 142.96 88.816 142.768 88.64C142.576 88.464 142.333 88.3307 142.04 88.24C141.747 88.144 141.403 88.096 141.008 88.096H139.392V92.248ZM150.214 89.664C150.731 89.664 151.206 89.7467 151.638 89.912C152.075 90.0773 152.451 90.32 152.766 90.64C153.08 90.9547 153.326 91.344 153.502 91.808C153.678 92.2667 153.766 92.792 153.766 93.384C153.766 93.5333 153.758 93.6587 153.742 93.76C153.731 93.856 153.707 93.9333 153.67 93.992C153.638 94.0453 153.592 94.0853 153.534 94.112C153.475 94.1333 153.4 94.144 153.31 94.144H148.238C148.296 94.9867 148.523 95.6053 148.918 96C149.312 96.3947 149.835 96.592 150.486 96.592C150.806 96.592 151.08 96.5547 151.31 96.48C151.544 96.4053 151.747 96.3227 151.918 96.232C152.094 96.1413 152.246 96.0587 152.374 95.984C152.507 95.9093 152.635 95.872 152.758 95.872C152.838 95.872 152.907 95.888 152.966 95.92C153.024 95.952 153.075 95.9973 153.118 96.056L153.694 96.776C153.475 97.032 153.23 97.248 152.958 97.424C152.686 97.5947 152.4 97.7333 152.102 97.84C151.808 97.9413 151.507 98.0133 151.198 98.056C150.894 98.0987 150.598 98.12 150.31 98.12C149.739 98.12 149.208 98.0267 148.718 97.84C148.227 97.648 147.8 97.368 147.438 97C147.075 96.6267 146.79 96.168 146.582 95.624C146.374 95.0747 146.27 94.44 146.27 93.72C146.27 93.16 146.36 92.6347 146.542 92.144C146.723 91.648 146.982 91.2187 147.318 90.856C147.659 90.488 148.072 90.1973 148.558 89.984C149.048 89.7707 149.6 89.664 150.214 89.664ZM150.254 91.08C149.678 91.08 149.227 91.2427 148.902 91.568C148.576 91.8933 148.368 92.3547 148.278 92.952H151.99C151.99 92.696 151.955 92.456 151.886 92.232C151.816 92.0027 151.71 91.8027 151.566 91.632C151.422 91.4613 151.24 91.328 151.022 91.232C150.803 91.1307 150.547 91.08 150.254 91.08ZM155.368 98V89.792H156.529C156.731 89.792 156.873 89.8293 156.953 89.904C157.033 89.9787 157.086 90.1067 157.113 90.288L157.233 91.28C157.526 90.7733 157.87 90.3733 158.265 90.08C158.659 89.7867 159.102 89.64 159.593 89.64C159.998 89.64 160.334 89.7333 160.601 89.92L160.345 91.4C160.329 91.496 160.294 91.5653 160.241 91.608C160.187 91.6453 160.115 91.664 160.025 91.664C159.945 91.664 159.835 91.6453 159.697 91.608C159.558 91.5707 159.374 91.552 159.145 91.552C158.734 91.552 158.382 91.6667 158.089 91.896C157.795 92.12 157.547 92.4507 157.345 92.888V98H155.368ZM170.914 93.2C171.004 93.3707 171.087 93.5493 171.162 93.736C171.242 93.9173 171.319 94.1013 171.394 94.288C171.468 94.096 171.546 93.9067 171.626 93.72C171.706 93.5333 171.791 93.3547 171.882 93.184L175.306 86.776C175.348 86.696 175.391 86.632 175.434 86.584C175.482 86.536 175.532 86.5013 175.586 86.48C175.644 86.4587 175.708 86.4453 175.778 86.44C175.847 86.4347 175.93 86.432 176.026 86.432H177.65V98H175.754V90.528C175.754 90.3893 175.756 90.2373 175.762 90.072C175.772 89.9067 175.786 89.7387 175.802 89.568L172.306 96.128C172.226 96.2773 172.122 96.3947 171.994 96.48C171.866 96.56 171.716 96.6 171.546 96.6H171.25C171.079 96.6 170.93 96.56 170.802 96.48C170.674 96.3947 170.57 96.2773 170.49 96.128L166.946 89.544C166.967 89.72 166.98 89.8933 166.986 90.064C166.996 90.2293 167.002 90.384 167.002 90.528V98H165.106V86.432H166.73C166.826 86.432 166.908 86.4347 166.978 86.44C167.047 86.4453 167.108 86.4587 167.162 86.48C167.22 86.5013 167.274 86.536 167.322 86.584C167.37 86.632 167.415 86.696 167.458 86.776L170.914 93.2ZM183.373 89.664C183.986 89.664 184.541 89.7627 185.037 89.96C185.538 90.1573 185.965 90.4373 186.317 90.8C186.669 91.1627 186.941 91.6053 187.133 92.128C187.325 92.6507 187.421 93.2347 187.421 93.88C187.421 94.5307 187.325 95.1173 187.133 95.64C186.941 96.1627 186.669 96.608 186.317 96.976C185.965 97.344 185.538 97.6267 185.037 97.824C184.541 98.0213 183.986 98.12 183.373 98.12C182.759 98.12 182.202 98.0213 181.701 97.824C181.199 97.6267 180.77 97.344 180.413 96.976C180.061 96.608 179.786 96.1627 179.589 95.64C179.397 95.1173 179.301 94.5307 179.301 93.88C179.301 93.2347 179.397 92.6507 179.589 92.128C179.786 91.6053 180.061 91.1627 180.413 90.8C180.77 90.4373 181.199 90.1573 181.701 89.96C182.202 89.7627 182.759 89.664 183.373 89.664ZM183.373 96.6C184.055 96.6 184.559 96.3707 184.885 95.912C185.215 95.4533 185.381 94.7813 185.381 93.896C185.381 93.0107 185.215 92.336 184.885 91.872C184.559 91.408 184.055 91.176 183.373 91.176C182.679 91.176 182.167 91.4107 181.837 91.88C181.506 92.344 181.341 93.016 181.341 93.896C181.341 94.776 181.506 95.448 181.837 95.912C182.167 96.3707 182.679 96.6 183.373 96.6ZM188.962 98V89.792H190.17C190.426 89.792 190.594 89.912 190.674 90.152L190.81 90.8C190.976 90.6293 191.149 90.4747 191.33 90.336C191.517 90.1973 191.712 90.0773 191.914 89.976C192.122 89.8747 192.344 89.7973 192.578 89.744C192.813 89.6907 193.069 89.664 193.346 89.664C193.794 89.664 194.192 89.7413 194.538 89.896C194.885 90.0453 195.173 90.2587 195.402 90.536C195.637 90.808 195.813 91.136 195.93 91.52C196.053 91.8987 196.114 92.3173 196.114 92.776V98H194.138V92.776C194.138 92.2747 194.021 91.888 193.786 91.616C193.557 91.3387 193.21 91.2 192.746 91.2C192.405 91.2 192.085 91.2773 191.786 91.432C191.488 91.5867 191.205 91.7973 190.938 92.064V98H188.962ZM200.752 98.128C200.043 98.128 199.496 97.928 199.112 97.528C198.728 97.1227 198.536 96.5653 198.536 95.856V91.272H197.704C197.597 91.272 197.504 91.2373 197.424 91.168C197.349 91.0987 197.312 90.9947 197.312 90.856V90.072L198.632 89.856L199.048 87.616C199.069 87.5093 199.117 87.4267 199.192 87.368C199.272 87.3093 199.371 87.28 199.488 87.28H200.512V89.864H202.672V91.272H200.512V95.72C200.512 95.976 200.576 96.176 200.704 96.32C200.832 96.464 201.003 96.536 201.216 96.536C201.339 96.536 201.44 96.5227 201.52 96.496C201.605 96.464 201.677 96.432 201.736 96.4C201.8 96.368 201.856 96.3387 201.904 96.312C201.952 96.28 202 96.264 202.048 96.264C202.107 96.264 202.155 96.28 202.192 96.312C202.229 96.3387 202.269 96.3813 202.312 96.44L202.904 97.4C202.616 97.64 202.285 97.8213 201.912 97.944C201.539 98.0667 201.152 98.128 200.752 98.128ZM204.243 98V86.112H206.22V90.68C206.54 90.376 206.892 90.1307 207.276 89.944C207.66 89.7573 208.11 89.664 208.628 89.664C209.076 89.664 209.473 89.7413 209.82 89.896C210.166 90.0453 210.454 90.2587 210.684 90.536C210.918 90.808 211.094 91.136 211.212 91.52C211.334 91.8987 211.396 92.3173 211.396 92.776V98H209.42V92.776C209.42 92.2747 209.302 91.888 209.068 91.616C208.838 91.3387 208.492 91.2 208.028 91.2C207.686 91.2 207.366 91.2773 207.068 91.432C206.769 91.5867 206.486 91.7973 206.22 92.064V98H204.243Z" fill="black"/>
<path d="M34 126L42.6603 141H25.3397L34 126Z" fill="#FF5A3C"/>
<rect x="261" y="57" width="26" height="78" rx="3" fill="url(#paint0_linear_2277_13)" fill-opacity="0.38"/>
<rect x="293" y="57" width="26" height="78" rx="3" fill="url(#paint1_linear_2277_13)" fill-opacity="0.38"/>
<rect x="325" y="57" width="26" height="78" rx="3" fill="url(#paint2_linear_2277_13)" fill-opacity="0.38"/>
<path d="M261 88H287V132C287 133.657 285.657 135 284 135H264C262.343 135 261 133.657 261 132V88Z" fill="#FF5A3C"/>
<path d="M293 106H319V132C319 133.657 317.657 135 316 135H296C294.343 135 293 133.657 293 132V106Z" fill="#FF5A3C"/>
<path d="M325 88H351V132C351 133.657 349.657 135 348 135H328C326.343 135 325 133.657 325 132V88Z" fill="#FF5A3C"/>
<defs>
<linearGradient id="paint0_linear_2277_13" x1="274" y1="57" x2="274" y2="135" gradientUnits="userSpaceOnUse">
<stop stop-color="#FF5A3C" stop-opacity="0.13"/>
<stop offset="1" stop-color="#FF5A3C"/>
</linearGradient>
<linearGradient id="paint1_linear_2277_13" x1="306" y1="57" x2="306" y2="135" gradientUnits="userSpaceOnUse">
<stop stop-color="#FF5A3C" stop-opacity="0.13"/>
<stop offset="1" stop-color="#FF5A3C"/>
</linearGradient>
<linearGradient id="paint2_linear_2277_13" x1="338" y1="57" x2="338" y2="135" gradientUnits="userSpaceOnUse">
<stop stop-color="#FF5A3C" stop-opacity="0.13"/>
<stop offset="1" stop-color="#FF5A3C"/>
</linearGradient>
</defs>
</svg>
