<svg width="22" height="21" viewBox="0 0 22 21" fill="none" xmlns="http://www.w3.org/2000/svg">
<path opacity="0.9" d="M21.7704 8.34109L17.1554 12.8376L18.2444 19.1934C18.2888 19.4749 18.1777 19.749 17.9481 19.9194C17.8221 20.0157 17.6666 20.0601 17.511 20.0601C17.3925 20.0601 17.274 20.0305 17.1628 19.9786L11.4589 16.9785L5.75495 19.9786C5.50309 20.112 5.20678 20.0897 4.97714 19.9194C4.7475 19.7564 4.63639 19.4749 4.68083 19.1934L5.76977 12.8376L1.16217 8.34109C0.962158 8.14108 0.88808 7.85218 0.976973 7.5855C1.06587 7.31883 1.29551 7.11882 1.577 7.08178L7.95504 6.15581L10.807 0.377794C11.0589 -0.125931 11.8885 -0.125931 12.133 0.377794L14.985 6.15581L21.363 7.08178C21.6445 7.12622 21.8741 7.31883 21.963 7.5855C22.0519 7.85218 21.9779 8.14108 21.7704 8.34109Z" fill="#70758F" fill-opacity="0.77"/>
</svg>
