<svg width="96" height="96" viewBox="0 0 96 96" fill="none" xmlns="http://www.w3.org/2000/svg">
<circle cx="48" cy="48" r="48" fill="#FF5A3C" fill-opacity="0.42"/>
<path d="M32.544 48.664C33.712 48.664 34.72 48.52 35.568 48.232C36.416 47.928 37.112 47.52 37.656 47.008C38.2 46.48 38.6 45.864 38.856 45.16C39.112 44.456 39.24 43.688 39.24 42.856C39.24 41.208 38.688 39.928 37.584 39.016C36.496 38.104 34.832 37.648 32.592 37.648H28.848V48.664H32.544ZM49.416 67H42.912C41.696 67 40.816 66.536 40.272 65.608L33.648 54.928C33.376 54.512 33.072 54.208 32.736 54.016C32.416 53.824 31.936 53.728 31.296 53.728H28.848V67H21.648V32.176H32.592C35.024 32.176 37.104 32.432 38.832 32.944C40.56 33.44 41.976 34.136 43.08 35.032C44.184 35.928 44.992 37 45.504 38.248C46.016 39.48 46.272 40.84 46.272 42.328C46.272 43.48 46.104 44.576 45.768 45.616C45.448 46.64 44.976 47.576 44.352 48.424C43.728 49.272 42.96 50.024 42.048 50.68C41.136 51.336 40.096 51.864 38.928 52.264C39.392 52.52 39.824 52.832 40.224 53.2C40.624 53.552 40.984 53.976 41.304 54.472L49.416 67Z" fill="black"/>
<path d="M60.0679 37.816V46.768H71.6839V52.216H60.0679V61.36H74.9959V67H52.8199V32.176H74.9959V37.816H60.0679Z" fill="#FF5A3C"/>
</svg>
